<svg xmlns="http://www.w3.org/2000/svg" viewBox="0 0 640 640"><path fill="currentColor" d="M96 96c17.7 0 32 14.3 32 32l0 352c0 8.8 7.2 16 16 16l400 0c17.7 0 32 14.3 32 32s-14.3 32-32 32L144 560C100.7 560 64 523.3 64 480L64 128c0-17.7 14.3-32 32-32zm96 256c0-17.7 14.3-32 32-32s32 14.3 32 32l0 96c0 17.7-14.3 32-32 32s-32-14.3-32-32l0-96zm128-64c17.7 0 32 14.3 32 32l0 160c0 17.7-14.3 32-32 32s-32-14.3-32-32l0-160c0-17.7 14.3-32 32-32zm96 96c0-17.7 14.3-32 32-32s32 14.3 32 32l0 64c0 17.7-14.3 32-32 32s-32-14.3-32-32l0-64zm128-160c17.7 0 32 14.3 32 32l0 192c0 17.7-14.3 32-32 32s-32-14.3-32-32l0-192c0-17.7 14.3-32 32-32z"/></svg>
